<?xml version="1.0" encoding="utf-8"?>
<!-- Generator: Adobe Illustrator 25.0.1, SVG Export Plug-In . SVG Version: 6.00 Build 0)  -->
<svg version="1.1" id="Calque_1" xmlns="http://www.w3.org/2000/svg" xmlns:xlink="http://www.w3.org/1999/xlink" x="0px" y="0px"
	 viewBox="0 0 40 40" style="enable-background:new 0 0 40 40;" xml:space="preserve">
<style type="text/css">
	.st0{fill:#EF233C;}
	.st1{fill:#FFFFFF;}
</style>
<g>
	<g>
		<circle class="st0" cx="20" cy="20" r="20"/>
	</g>
	<g>
		<path class="st1" d="M23.3,9.9c0,0.4-0.1,0.8-0.3,1.2c-0.2,0.4-0.4,0.7-0.7,1c-0.3,0.3-0.7,0.5-1.1,0.7c-0.4,0.2-0.8,0.3-1.3,0.3
			c-0.4,0-0.9-0.1-1.3-0.3c-0.4-0.2-0.7-0.4-1-0.7c-0.3-0.3-0.5-0.6-0.7-1s-0.3-0.8-0.3-1.2c0-0.4,0.1-0.9,0.3-1.3s0.4-0.7,0.7-1
			c0.3-0.3,0.6-0.5,1-0.7s0.8-0.2,1.3-0.2c0.5,0,0.9,0.1,1.3,0.2s0.8,0.4,1.1,0.7c0.3,0.3,0.5,0.6,0.7,1C23.2,9.1,23.3,9.5,23.3,9.9
			z M22.7,15v18.3h-5.5V15H22.7z"/>
	</g>
</g>
</svg>
